<?xml version="1.0" standalone="no"?>
<!DOCTYPE svg PUBLIC "-//W3C//DTD SVG 20010904//EN" "http://www.w3.org/TR/2001/REC-SVG-20010904/DTD/svg10.dtd">
<svg version="1.0" xmlns="http://www.w3.org/2000/svg" width="512.000000pt" height="512.000000pt" viewBox="0 0 512.000000 512.000000" preserveAspectRatio="xMidYMid meet">

<g transform="translate(0.000000,512.000000) scale(0.100000,-0.100000)"
fill="#000000" stroke="none">
<path d="M2315 4625 c-706 -86 -1328 -532 -1631 -1170 -114 -240 -180 -492
-200 -762 l-7 -93 -38 0 c-32 0 -45 7 -73 38 -31 33 -39 37 -85 37 -44 0 -55
-4 -83 -33 -28 -28 -33 -39 -33 -82 0 -43 5 -54 33 -82 28 -29 39 -33 83 -33
46 0 54 4 85 38 28 30 41 37 73 37 l38 0 7 -92 c38 -517 247 -976 607 -1337
672 -673 1716 -803 2533 -317 187 111 423 317 561 489 260 323 419 734 451
1165 l7 92 38 0 c32 0 45 -7 73 -37 31 -34 39 -38 85 -38 44 0 55 4 83 33 28
28 33 39 33 82 0 43 -5 54 -33 82 -28 29 -39 33 -83 33 -46 0 -54 -4 -85 -37
-28 -31 -41 -38 -72 -38 l-39 0 -11 133 c-24 262 -93 511 -207 743 l-63 129
122 125 c135 138 156 167 181 254 50 171 -44 366 -212 443 -50 23 -72 27 -158
27 -92 1 -105 -2 -165 -30 -42 -20 -94 -58 -147 -108 l-83 -78 -82 78 c-54 50
-106 88 -148 108 -58 28 -76 31 -165 33 -82 1 -110 6 -155 26 -149 66 -380
124 -585 147 -120 13 -315 11 -450 -5z m443 -75 c145 -16 292 -47 430 -92
l124 -41 -49 -43 c-26 -24 -53 -43 -59 -44 -6 0 -36 9 -68 20 -84 29 -268 67
-378 79 -714 78 -1429 -276 -1803 -892 -107 -177 -195 -398 -234 -594 -21
-101 -41 -253 -41 -310 l0 -33 128 0 127 1 120 197 c104 171 123 197 145 197
22 0 40 -25 143 -195 l117 -195 123 -5 122 -5 103 -170 c56 -93 106 -169 110
-167 4 1 63 118 130 260 68 141 129 263 134 270 7 7 37 12 82 12 l71 0 156
332 c86 183 163 337 172 342 31 20 50 -8 114 -165 34 -85 127 -313 206 -507
l144 -353 84 133 84 133 71 3 70 3 85 181 c47 100 93 186 102 192 12 8 22 8
34 0 11 -7 79 -185 180 -470 89 -252 162 -461 163 -464 0 -3 37 90 82 205 44
116 85 216 91 223 7 8 47 12 139 12 l130 0 -6 88 c-20 247 -85 490 -187 693
l-38 76 43 42 c23 22 44 41 47 41 3 0 31 -53 62 -118 293 -612 254 -1338 -103
-1914 -307 -494 -803 -823 -1395 -925 -139 -23 -471 -23 -610 0 -441 77 -801
261 -1106 566 -309 310 -489 663 -566 1106 -24 139 -24 471 0 610 93 538 364
984 788 1300 395 294 906 436 1387 385z m882 -200 c25 -12 89 -65 143 -116 55
-53 106 -94 117 -94 11 0 62 41 117 94 118 113 163 138 258 144 127 8 237 -55
292 -166 23 -47 28 -70 28 -132 -1 -129 -4 -133 -367 -490 -176 -173 -324
-315 -328 -315 -4 0 -152 142 -328 315 -363 357 -366 361 -367 490 0 95 34
172 101 227 93 76 234 94 334 43z m-1440 -830 l0 -40 -360 0 -360 0 0 40 0 40
360 0 360 0 0 -40z m0 -320 l0 -40 -360 0 -360 0 0 40 0 40 360 0 360 0 0 -40z"/>
<path d="M2540 3048 c-73 -156 -139 -293 -146 -305 -13 -20 -23 -23 -87 -23
l-73 0 -133 -277 c-73 -153 -139 -288 -148 -301 -31 -49 -51 -29 -176 178
l-117 195 -123 5 -122 5 -88 145 c-48 80 -97 160 -108 179 l-20 33 -106 -173
c-58 -96 -111 -177 -117 -181 -6 -4 -75 -8 -153 -8 l-143 0 0 -30 c0 -67 22
-231 46 -339 81 -362 255 -673 525 -937 309 -301 679 -475 1119 -525 127 -14
377 -7 505 16 398 70 750 257 1035 551 252 260 413 562 488 914 20 93 42 260
42 320 l0 31 -107 -3 -107 -3 -97 -249 c-52 -138 -103 -255 -112 -260 -12 -8
-22 -8 -34 0 -11 7 -79 187 -182 479 l-165 468 -76 -154 -75 -154 -73 -5 -72
-5 -98 -155 c-97 -155 -123 -181 -149 -148 -6 7 -99 231 -208 498 -108 267
-200 489 -204 493 -4 4 -68 -119 -141 -275z m-1071 -1222 c8 -9 11 -69 9 -191
-3 -157 -5 -179 -20 -189 -13 -8 -23 -8 -35 0 -16 10 -18 32 -21 189 -3 183 1
205 38 205 10 0 23 -6 29 -14z m560 0 c8 -9 11 -69 9 -191 -3 -157 -5 -179
-20 -189 -13 -8 -23 -8 -35 0 -16 10 -18 32 -21 189 -3 183 1 205 38 205 10 0
23 -6 29 -14z m560 0 c8 -9 11 -69 9 -191 -3 -157 -5 -179 -20 -189 -13 -8
-23 -8 -35 0 -16 10 -18 32 -21 189 -3 183 1 205 38 205 10 0 23 -6 29 -14z
m560 0 c8 -9 11 -69 9 -191 -3 -157 -5 -179 -20 -189 -13 -8 -23 -8 -35 0 -16
10 -18 32 -21 189 -3 183 1 205 38 205 10 0 23 -6 29 -14z m560 0 c8 -9 11
-69 9 -191 -3 -157 -5 -179 -20 -189 -13 -8 -23 -8 -35 0 -16 10 -18 32 -21
189 -3 183 1 205 38 205 10 0 23 -6 29 -14z m-1960 -160 c8 -9 11 -48 9 -111
-2 -80 -6 -100 -20 -109 -13 -8 -23 -8 -35 0 -15 9 -19 29 -21 109 -3 101 4
125 38 125 10 0 23 -6 29 -14z m560 0 c8 -9 11 -48 9 -111 -2 -80 -6 -100 -20
-109 -13 -8 -23 -8 -35 0 -15 9 -19 29 -21 109 -3 101 4 125 38 125 10 0 23
-6 29 -14z m560 0 c8 -9 11 -48 9 -111 -2 -80 -6 -100 -20 -109 -13 -8 -23 -8
-35 0 -15 9 -19 29 -21 109 -3 101 4 125 38 125 10 0 23 -6 29 -14z m560 0 c8
-9 11 -48 9 -111 -2 -80 -6 -100 -20 -109 -13 -8 -23 -8 -35 0 -15 9 -19 29
-21 109 -3 101 4 125 38 125 10 0 23 -6 29 -14z"/>
</g>
</svg>
